<svg width="1037" height="1051" viewBox="0 0 1037 1051" fill="none" xmlns="http://www.w3.org/2000/svg">
<rect y="51" width="1000" height="1000" rx="100" fill="black"/>
<rect x="37" width="1000" height="1000" rx="100" fill="white"/>
<path d="M547 926.5C446.5 926.5 375 849 375 741.5C375 635.5 441 554.5 546.5 554.5C634.5 554.5 686.5 607 694 675H622C615.5 639 588.5 615.5 546.5 615.5C480.5 615.5 449 670.5 449 741.5C449 814.5 487 867 547 867C589.5 867 619.5 841.5 624 804H695C693 835.5 679.5 866 655.5 888.5C631 911.5 596.5 926.5 547 926.5ZM805.777 919V781L686.777 561.5H765.777L819.777 667.5C830.777 689 843.277 718.5 843.277 718.5H844.277C844.277 718.5 857.777 689 868.277 667.5L921.277 561.5H997.277L878.277 781V919H805.777Z" fill="black"/>
</svg>
